<?xml version="1.0" encoding="utf-8"?>
<svg viewBox="0 0 500 500" xmlns="http://www.w3.org/2000/svg">
  <g transform="matrix(1, 0, 0, 1, 288.45608950340886, 218.42961446090956)">
    <g>
      <path class="st0" d="M -9.15 215.368 C -15.846 213.135 -27.007 212.392 -36.678 220.575 C -46.35 213.135 -57.508 213.135 -64.204 215.368 C -69.413 217.599 -73.876 219.088 -82.061 219.088 C -73.876 236.198 -56.766 248.103 -36.678 248.103 C -16.591 248.103 0.521 236.198 8.704 219.088 C 0.521 219.088 -3.943 217.599 -9.15 215.368 Z" style=""/>
      <path class="st0" d="M -36.678 -210.927 C -173.569 -210.927 -285.164 -99.332 -285.164 37.559 C -285.164 155.105 -203.327 254.054 -93.219 279.349 C -180.265 232.478 -215.974 125.348 -174.312 36.07 C -167.616 71.781 -144.555 103.029 -109.587 119.394 C -154.226 14.496 -121.491 -109.748 -28.494 -178.194 C -47.094 -115.7 -18.822 -58.414 41.439 -15.264 C 110.629 33.839 112.86 135.019 52.597 189.329 C 76.405 183.377 99.469 170.73 115.836 149.898 C 105.42 203.463 71.941 251.079 20.607 278.605 C 130.715 252.566 212.552 154.363 212.552 36.815 C 211.808 -99.332 100.955 -210.927 -36.678 -210.927 Z" style=""/>
    </g>
    <g>
      <g/>
    </g>
    <g/>
  </g>
</svg>