<?xml version="1.0" encoding="utf-8"?>
<svg viewBox="8.474 29.659 505.65 192.815" xmlns="http://www.w3.org/2000/svg">
  <g transform="matrix(2.8391010761260986, 0, 0, 2.8391010761260986, 209.52727057825427, -129.80032542050367)" style="">
    <g>
      <path class="st0" d="M -32.31 114.584 C -33.21 114.284 -34.71 114.184 -36.01 115.284 C -37.31 114.284 -38.81 114.284 -39.71 114.584 C -40.41 114.884 -41.01 115.084 -42.11 115.084 C -41.01 117.384 -38.71 118.984 -36.01 118.984 C -33.31 118.984 -31.01 117.384 -29.91 115.084 C -31.01 115.084 -31.61 114.884 -32.31 114.584 Z" style=""/>
      <path class="st0" d="M -36.01 57.284 C -54.41 57.284 -69.41 72.284 -69.41 90.684 C -69.41 106.484 -58.41 119.784 -43.61 123.184 C -55.31 116.884 -60.11 102.484 -54.51 90.484 C -53.61 95.284 -50.51 99.484 -45.81 101.684 C -51.81 87.584 -47.41 70.884 -34.91 61.684 C -37.41 70.084 -33.61 77.784 -25.51 83.584 C -16.21 90.184 -15.91 103.784 -24.01 111.084 C -20.81 110.284 -17.71 108.584 -15.51 105.784 C -16.91 112.984 -21.41 119.384 -28.31 123.084 C -13.51 119.584 -2.51 106.384 -2.51 90.584 C -2.61 72.284 -17.51 57.284 -36.01 57.284 Z" style=""/>
    </g>
    <g>
      <path class="st1" d="M52.3,111.4c0,4.7-3.8,8.6-8.6,8.6c-4.7,0-8.6-3.8-8.6-8.6c0-4.7,3.8-8.6,8.6-8.6&#10;&#9;&#9;&#9;C48.4,102.9,52.3,106.7,52.3,111.4 M43.7,104.3c-3.9,0-7.1,3.2-7.1,7.1c0,3.9,3.2,7.1,7.1,7.1c3.9,0,7.1-3.2,7.1-7.1&#10;&#9;&#9;&#9;C50.9,107.5,47.7,104.3,43.7,104.3" style="clip-rule: evenodd; fill-rule: evenodd;"/>
      <path class="st1" d="M70.9,111.4c0,4.7-3.8,8.6-8.6,8.6c-4.7,0-8.6-3.8-8.6-8.6c0-4.7,3.8-8.6,8.6-8.6&#10;&#9;&#9;&#9;C67,102.9,70.9,106.7,70.9,111.4 M62.3,104.3c-3.9,0-7.1,3.2-7.1,7.1c0,3.9,3.2,7.1,7.1,7.1c3.9,0,7.1-3.2,7.1-7.1&#10;&#9;&#9;&#9;C69.4,107.5,66.2,104.3,62.3,104.3" style="clip-rule: evenodd; fill-rule: evenodd;"/>
      <path class="st1" d="M34.4,95c-4.7,0-8.6,3.8-8.6,8.6c0,4.7,3.8,8.6,8.6,8.6c0.3,0,0.5,0,0.7,0c0-0.5,0-1,0-1.4&#10;&#9;&#9;&#9;c-0.2,0-0.5,0-0.7,0c-3.9,0-7.1-3.2-7.1-7.1c0-3.9,3.2-7.1,7.1-7.1c3.9,0,7.1,3.2,7.1,7.1c0,3.2-2.1,5.9-4.9,6.8&#10;&#9;&#9;&#9;c-0.1,0.5-0.1,1-0.1,1.5c3.7-1,6.4-4.3,6.4-8.3C43,98.8,39.2,95,34.4,95" style="clip-rule: evenodd; fill-rule: evenodd;"/>
      <path class="st1" d="M71.6,95c-4.5,0-8.2,3.5-8.5,7.9c0.5,0,1,0.1,1.4,0.2c0.2-3.7,3.3-6.7,7.1-6.7c3.9,0,7.1,3.2,7.1,7.1&#10;&#9;&#9;&#9;c0,3.9-3.2,7.1-7.1,7.1c-3.6,0-6.5-2.6-7.1-6.1c-0.5-0.2-1-0.3-1.5-0.3c0.4,4.4,4.1,7.8,8.5,7.8c4.7,0,8.6-3.8,8.6-8.6&#10;&#9;&#9;&#9;C80.1,98.8,76.3,95,71.6,95" style="clip-rule: evenodd; fill-rule: evenodd;"/>
      <g>
        <path class="st1" d="M53,95c-4.5,0-8.2,3.5-8.5,7.9c0.5,0,1,0.1,1.4,0.2c0.2-3.7,3.3-6.7,7.1-6.7c3.9,0,7.1,3.2,7.1,7.1&#10;&#9;&#9;&#9;&#9;c0,3.2-2.1,5.9-4.9,6.8c-0.1,0.5-0.1,1-0.1,1.5c3.7-1,6.4-4.3,6.4-8.3C61.6,98.8,57.7,95,53,95" style="clip-rule: evenodd; fill-rule: evenodd;"/>
        <path class="st1" d="M53.7,111.4c0-0.3,0-0.5,0-0.8c-0.2,0-0.5,0-0.7,0c-3.6,0-6.5-2.6-7.1-6.1c-0.5-0.2-1-0.3-1.5-0.3&#10;&#9;&#9;&#9;&#9;c0.4,4.4,4.1,7.8,8.5,7.8c0.2,0,0.5,0,0.7,0C53.7,111.9,53.7,111.7,53.7,111.4" style="clip-rule: evenodd; fill-rule: evenodd;"/>
      </g>
    </g>
    <g>
      <path class="st0" d="M6,75.6c-0.8-0.4-1.6-0.4-2.5-0.4c-0.7,0-2.8,0-2.8,0v10.4h1.6c0-0.6,0-1.2,0.2-1.8C3,83,4,82.5,4.8,82.1&#10;&#9;&#9;&#9;c0.9-0.4,1.9-0.9,2.5-1.7c0.5-0.7,0.7-1.7,0.5-2.6C7.6,76.8,7,76,6,75.6z M6,79.6c-0.4,0.6-1,0.9-1.6,1.2&#10;&#9;&#9;&#9;c-0.7,0.3-1.3,0.7-1.9,1.1v-5.2c0.5,0,1,0,1.5,0c0.9,0,1.8,0.3,2.1,1.1C6.3,78.4,6.3,79.1,6,79.6z" style=""/>
      <path class="st0" d="M18,75.5c-0.6-0.3-1.2-0.5-1.8-0.5c-1,0-2,0.4-2.7,1.1c-0.5,0.6-0.8,1.4-0.8,2.1c0,0.2,0,7.3,0,7.3h1.6v-3.5&#10;&#9;&#9;&#9;c0.9-0.1,2,0,2.8,0.5c0.8,0.6,1.1,1.3,1,2.9c0.2,0,1.6,0,1.6,0v-7C19.6,77.3,19.1,76.1,18,75.5z M14.2,80.6c0-0.6,0-1.1,0-1.7&#10;&#9;&#9;&#9;c0-0.3,0-0.6,0.1-0.9c0.2-0.6,0.6-1.1,1.2-1.3c0.6-0.2,1.3-0.1,1.8,0.3c0.5,0.4,0.8,1,0.8,1.6c0,0.5,0,1,0,1.5c0,0.6,0,1.2,0,1.8&#10;&#9;&#9;&#9;C17.1,80.7,15.6,80.4,14.2,80.6z" style=""/>
      <path class="st0" d="M30.7,81.7c-0.2-0.1-0.4-0.2-0.6-0.2c0.5-0.3,1-0.6,1.4-1.1c0.3-0.4,0.5-0.9,0.6-1.5c0.1-1.1-0.2-2.2-1.2-2.9&#10;&#9;&#9;&#9;c-1.5-1.1-3.3-0.7-5.9-0.8c0,0.3,0,10.4,0,10.4h1.6c0-0.3,0-0.6,0-0.9c0-0.7,0.3-1.4,0.9-1.7c0.6-0.4,1.4-0.4,2-0.1&#10;&#9;&#9;&#9;c0.6,0.3,1,0.9,1.1,1.6c0.1,0.4,0,0.8,0,1.2h1.6c0-0.6,0-1.2-0.1-1.7C32.1,83,31.5,82.2,30.7,81.7z M28.2,76.7&#10;&#9;&#9;&#9;c1,0,2.1,0.5,2.2,1.6c0.1,0.5-0.1,1.1-0.4,1.5c-0.4,0.5-1,0.7-1.5,1c-0.6,0.3-1.3,0.6-1.8,1.1v-5.2H28.2z" style=""/>
      <path class="st0" d="M37.5,76.6c0.5-0.1,1.1-0.2,1.6-0.2v-1.2h-1.6V76.6z" style=""/>
      <path class="st0" d="M37.5,77.5v8.1h1.6v-8.3C38.5,77.3,38,77.4,37.5,77.5z" style=""/>
      <path class="st0" d="M49.9,80.6c-0.6-0.5-1.3-0.7-2-1c-0.6-0.2-1.4-0.5-1.8-1c-0.4-0.5-0.3-1.3,0.1-1.7c0.5-0.5,1.2-0.6,1.8-0.4&#10;&#9;&#9;&#9;c0.7,0.2,1.1,0.8,1.1,1.5h1.6c0-0.8-0.2-1.5-0.8-2.1c-0.5-0.5-1.2-0.9-1.9-1c-0.8-0.1-1.6,0-2.2,0.4c-0.6,0.4-1.2,0.9-1.4,1.6&#10;&#9;&#9;&#9;c-0.2,0.7-0.2,1.5,0.2,2.1c0.4,0.7,1.1,1.1,1.8,1.4c0.8,0.3,1.7,0.5,2.4,1c0.3,0.2,0.5,0.5,0.6,0.8c0.1,0.3,0.1,0.7-0.1,1&#10;&#9;&#9;&#9;c-0.4,0.7-1.3,1-2.1,0.8c-0.9-0.2-1.5-0.9-1.5-1.8H44c0,0.8,0.3,1.7,0.9,2.3c0.6,0.6,1.4,0.9,2.3,1c0.9,0.1,1.8-0.1,2.5-0.6&#10;&#9;&#9;&#9;c0.7-0.5,1.1-1.2,1.2-2C51,82.1,50.7,81.2,49.9,80.6z" style=""/>
      <path class="st0" d="M65,80.8c0.7-0.9,1.4-1.9,1.2-3.1c-0.1-1.1-0.9-2-1.8-2.4c-1-0.5-2.2-0.4-3.2,0.1c-1,0.5-1.7,1.5-1.7,2.6&#10;&#9;&#9;&#9;c-0.1,1.1,0.5,2.1,1.4,2.8l0.9-1.2c-0.7-0.6-1-1.6-0.4-2.4c0.5-0.7,1.6-0.9,2.4-0.5c0.4,0.2,0.7,0.5,0.9,0.9&#10;&#9;&#9;&#9;c0.3,0.9-0.3,1.8-0.9,2.5c-1.1,1.4-4,5-4.4,5.5h7.3v-1.5h-4.2L65,80.8z" style=""/>
      <path class="st0" d="M80.3,76.6c-1.6-1.6-4.2-2-6.2-1.1c-2.1,1-3.3,3.2-3.1,5.4c0.2,2.2,1.9,4.1,4,4.7c2.2,0.6,4.6-0.3,5.9-2.1&#10;&#9;&#9;&#9;C82.4,81.4,82.1,78.3,80.3,76.6z M79.9,81.9c-0.6,1.5-2.1,2.4-3.7,2.3c-1.6-0.1-2.9-1.2-3.4-2.7c-0.5-1.5,0.1-3.3,1.4-4.2&#10;&#9;&#9;&#9;c1.3-1,3.1-1,4.4-0.1C80,78.2,80.6,80.2,79.9,81.9z" style=""/>
      <path class="st0" d="M103.6,78v3.5c-0.8-0.6-1.7-0.7-2.5-1.2c-0.7-0.4-0.9-1.1-0.9-1.9c0-0.8,0-3.2,0-3.2h-1.6c0,0,0,2.2,0,3.3&#10;&#9;&#9;&#9;c0,1.1,0.3,2.2,1.2,2.9c0.6,0.4,1.2,0.7,1.9,0.9c0.6,0.2,1.2,0.5,1.6,1c0.5,0.5,0.3,1.8,0.4,2.3h1.6V78H103.6z" style=""/>
      <path class="st0" d="M92.2,80.8c0.7-0.9,1.4-1.9,1.2-3.1c-0.1-1.1-0.9-2-1.8-2.4c-1-0.5-2.2-0.4-3.2,0.1c-1,0.5-1.7,1.5-1.7,2.6&#10;&#9;&#9;&#9;c-0.1,1.1,0.5,2.1,1.4,2.8l0.9-1.2c-0.7-0.6-1-1.6-0.4-2.4c0.5-0.7,1.6-0.9,2.4-0.5c0.4,0.2,0.7,0.5,0.9,0.9&#10;&#9;&#9;&#9;c0.3,0.9-0.3,1.8-0.9,2.5c-1.1,1.4-4,5-4.4,5.5h7.3v-1.5h-4.2L92.2,80.8z" style=""/>
    </g>
  </g>
</svg>